<mxfile host="app.diagrams.net" modified="2024-06-19T13:30:31.817Z" agent="Mozilla/5.0 (Windows NT 10.0; Win64; x64) AppleWebKit/537.36 (KHTML, like Gecko) Chrome/126.0.0.0 Safari/537.36" etag="VDwS9-FTWjT-4PCabfJY" version="24.5.4" type="device">
  <diagram name="Página-1" id="517_VSssGFP8lva_IasA">
    <mxGraphModel dx="880" dy="468" grid="1" gridSize="10" guides="1" tooltips="1" connect="1" arrows="1" fold="1" page="1" pageScale="1" pageWidth="827" pageHeight="1169" math="0" shadow="0">
      <root>
        <mxCell id="0" />
        <mxCell id="1" parent="0" />
        <mxCell id="yOSEV3PB2juxVyHUlIK3-4" value="&lt;p style=&quot;margin: 4px 0px 0px; text-align: center; font-size: 14px;&quot;&gt;&lt;b&gt;&lt;i&gt;Interface&lt;/i&gt;&lt;/b&gt;&lt;/p&gt;&lt;hr size=&quot;1&quot; style=&quot;border-style: solid; font-size: 14px;&quot;&gt;&lt;p style=&quot;text-align: center; margin: 0px 0px 0px 4px; font-size: 14px;&quot;&gt;&lt;b&gt;&lt;i&gt;Reprodutor Musical&lt;/i&gt;&lt;/b&gt;&lt;/p&gt;&lt;hr size=&quot;1&quot; style=&quot;border-style: solid; font-size: 14px;&quot;&gt;&lt;p style=&quot;text-align: center; margin: 0px 0px 0px 4px; font-size: 14px;&quot;&gt;&lt;b style=&quot;&quot;&gt;&lt;i style=&quot;&quot;&gt;&lt;font style=&quot;font-size: 14px;&quot;&gt;- abstract: tocar();&lt;/font&gt;&lt;/i&gt;&lt;/b&gt;&lt;/p&gt;" style="verticalAlign=top;align=left;overflow=fill;html=1;whiteSpace=wrap;" parent="1" vertex="1">
          <mxGeometry x="10" y="20" width="190" height="110" as="geometry" />
        </mxCell>
        <mxCell id="yOSEV3PB2juxVyHUlIK3-5" value="&lt;p style=&quot;margin:0px;margin-top:4px;text-align:center;&quot;&gt;&lt;span style=&quot;font-size: 14px;&quot;&gt;&lt;b&gt;&lt;i&gt;Interface&lt;/i&gt;&lt;/b&gt;&lt;/span&gt;&lt;/p&gt;&lt;hr size=&quot;1&quot; style=&quot;border-style:solid;&quot;&gt;&lt;p style=&quot;margin:0px;margin-left:4px;&quot;&gt;&lt;br&gt;&lt;/p&gt;&lt;div style=&quot;text-align: center;&quot;&gt;&lt;span style=&quot;background-color: initial;&quot;&gt;&lt;b&gt;&lt;i&gt;&lt;font style=&quot;font-size: 14px;&quot;&gt;Aparelho Telefônico&lt;/font&gt;&lt;/i&gt;&lt;/b&gt;&lt;/span&gt;&lt;/div&gt;&lt;p&gt;&lt;/p&gt;&lt;hr size=&quot;1&quot; style=&quot;border-style:solid;&quot;&gt;&lt;p style=&quot;margin:0px;margin-left:4px;&quot;&gt;&lt;/p&gt;&lt;div style=&quot;text-align: center;&quot;&gt;&lt;span style=&quot;background-color: initial;&quot;&gt;&lt;i&gt;&lt;b&gt;&lt;font style=&quot;font-size: 14px;&quot;&gt;+ telefonar() : void&lt;/font&gt;&lt;/b&gt;&lt;/i&gt;&lt;/span&gt;&lt;/div&gt;&lt;br&gt;&lt;p&gt;&lt;/p&gt;" style="verticalAlign=top;align=left;overflow=fill;html=1;whiteSpace=wrap;" parent="1" vertex="1">
          <mxGeometry x="319" y="20" width="190" height="110" as="geometry" />
        </mxCell>
        <mxCell id="yOSEV3PB2juxVyHUlIK3-6" value="&lt;p style=&quot;margin: 4px 0px 0px; text-align: center; font-size: 14px;&quot;&gt;&lt;b&gt;&lt;i&gt;interface&lt;/i&gt;&lt;/b&gt;&lt;/p&gt;&lt;hr size=&quot;1&quot; style=&quot;border-style: solid; font-size: 14px;&quot;&gt;&lt;p style=&quot;text-align: center; margin: 0px 0px 0px 4px; font-size: 14px;&quot;&gt;&lt;b&gt;&lt;i&gt;Navegador Na Internet&lt;/i&gt;&lt;/b&gt;&lt;/p&gt;&lt;hr size=&quot;1&quot; style=&quot;border-style:solid;&quot;&gt;&lt;p style=&quot;text-align: center; margin: 0px 0px 0px 4px; font-size: 14px;&quot;&gt;&lt;b&gt;&lt;i&gt;+ navegar() : void&lt;/i&gt;&lt;/b&gt;&lt;/p&gt;" style="verticalAlign=top;align=left;overflow=fill;html=1;whiteSpace=wrap;" parent="1" vertex="1">
          <mxGeometry x="637" y="20" width="190" height="110" as="geometry" />
        </mxCell>
        <mxCell id="yOSEV3PB2juxVyHUlIK3-7" value="iPod" style="swimlane;fontStyle=0;childLayout=stackLayout;horizontal=1;startSize=26;fillColor=none;horizontalStack=0;resizeParent=1;resizeParentMax=0;resizeLast=0;collapsible=1;marginBottom=0;whiteSpace=wrap;html=1;" parent="1" vertex="1">
          <mxGeometry x="10" y="230" width="140" height="58" as="geometry" />
        </mxCell>
        <mxCell id="yOSEV3PB2juxVyHUlIK3-8" value="+ tocar() : void" style="text;strokeColor=none;fillColor=none;align=left;verticalAlign=top;spacingLeft=4;spacingRight=4;overflow=hidden;rotatable=0;points=[[0,0.5],[1,0.5]];portConstraint=eastwest;whiteSpace=wrap;html=1;" parent="yOSEV3PB2juxVyHUlIK3-7" vertex="1">
          <mxGeometry y="26" width="140" height="32" as="geometry" />
        </mxCell>
        <mxCell id="yOSEV3PB2juxVyHUlIK3-11" value="Telefone" style="swimlane;fontStyle=0;childLayout=stackLayout;horizontal=1;startSize=26;fillColor=none;horizontalStack=0;resizeParent=1;resizeParentMax=0;resizeLast=0;collapsible=1;marginBottom=0;whiteSpace=wrap;html=1;" parent="1" vertex="1">
          <mxGeometry x="319" y="230" width="140" height="52" as="geometry">
            <mxRectangle x="340" y="230" width="80" height="30" as="alternateBounds" />
          </mxGeometry>
        </mxCell>
        <mxCell id="yOSEV3PB2juxVyHUlIK3-12" value="+ telefonar() : void" style="text;strokeColor=none;fillColor=none;align=left;verticalAlign=top;spacingLeft=4;spacingRight=4;overflow=hidden;rotatable=0;points=[[0,0.5],[1,0.5]];portConstraint=eastwest;whiteSpace=wrap;html=1;" parent="yOSEV3PB2juxVyHUlIK3-11" vertex="1">
          <mxGeometry y="26" width="140" height="26" as="geometry" />
        </mxCell>
        <mxCell id="yOSEV3PB2juxVyHUlIK3-15" value="Navegador" style="swimlane;fontStyle=0;childLayout=stackLayout;horizontal=1;startSize=26;fillColor=none;horizontalStack=0;resizeParent=1;resizeParentMax=0;resizeLast=0;collapsible=1;marginBottom=0;whiteSpace=wrap;html=1;" parent="1" vertex="1">
          <mxGeometry x="662" y="230" width="140" height="52" as="geometry" />
        </mxCell>
        <mxCell id="yOSEV3PB2juxVyHUlIK3-16" value="+ navegar() : void" style="text;strokeColor=none;fillColor=none;align=left;verticalAlign=top;spacingLeft=4;spacingRight=4;overflow=hidden;rotatable=0;points=[[0,0.5],[1,0.5]];portConstraint=eastwest;whiteSpace=wrap;html=1;" parent="yOSEV3PB2juxVyHUlIK3-15" vertex="1">
          <mxGeometry y="26" width="140" height="26" as="geometry" />
        </mxCell>
        <mxCell id="yOSEV3PB2juxVyHUlIK3-19" value="&lt;p style=&quot;margin:0px;margin-top:4px;text-align:center;&quot;&gt;&lt;i&gt;&lt;b&gt;&lt;font style=&quot;font-size: 14px;&quot;&gt;iPhone&lt;/font&gt;&lt;/b&gt;&lt;/i&gt;&lt;/p&gt;" style="verticalAlign=top;align=left;overflow=fill;html=1;whiteSpace=wrap;" parent="1" vertex="1">
          <mxGeometry x="210" y="360" width="380" height="60" as="geometry" />
        </mxCell>
        <mxCell id="yOSEV3PB2juxVyHUlIK3-20" value="" style="endArrow=open;endFill=1;endSize=12;html=1;rounded=0;exitX=0.097;exitY=0.033;exitDx=0;exitDy=0;exitPerimeter=0;entryX=0.947;entryY=1.014;entryDx=0;entryDy=0;entryPerimeter=0;" parent="1" source="yOSEV3PB2juxVyHUlIK3-19" target="yOSEV3PB2juxVyHUlIK3-4" edge="1">
          <mxGeometry width="160" relative="1" as="geometry">
            <mxPoint x="220" y="390" as="sourcePoint" />
            <mxPoint x="200" y="240" as="targetPoint" />
          </mxGeometry>
        </mxCell>
        <mxCell id="yOSEV3PB2juxVyHUlIK3-21" value="" style="endArrow=open;endFill=1;endSize=12;html=1;rounded=0;entryX=0;entryY=1;entryDx=0;entryDy=0;exitX=0.918;exitY=-0.033;exitDx=0;exitDy=0;exitPerimeter=0;" parent="1" source="yOSEV3PB2juxVyHUlIK3-19" target="yOSEV3PB2juxVyHUlIK3-6" edge="1">
          <mxGeometry width="160" relative="1" as="geometry">
            <mxPoint x="330" y="250" as="sourcePoint" />
            <mxPoint x="490" y="250" as="targetPoint" />
          </mxGeometry>
        </mxCell>
        <mxCell id="yOSEV3PB2juxVyHUlIK3-23" value="" style="endArrow=open;endFill=1;endSize=12;html=1;rounded=0;exitX=0.716;exitY=0;exitDx=0;exitDy=0;exitPerimeter=0;entryX=0.905;entryY=1.043;entryDx=0;entryDy=0;entryPerimeter=0;" parent="1" source="yOSEV3PB2juxVyHUlIK3-19" target="yOSEV3PB2juxVyHUlIK3-5" edge="1">
          <mxGeometry width="160" relative="1" as="geometry">
            <mxPoint x="330" y="250" as="sourcePoint" />
            <mxPoint x="490" y="250" as="targetPoint" />
          </mxGeometry>
        </mxCell>
        <mxCell id="yOSEV3PB2juxVyHUlIK3-24" value="" style="endArrow=open;endFill=1;endSize=12;html=1;rounded=0;entryX=0.384;entryY=1.014;entryDx=0;entryDy=0;entryPerimeter=0;exitX=0.5;exitY=0;exitDx=0;exitDy=0;" parent="1" source="yOSEV3PB2juxVyHUlIK3-11" target="yOSEV3PB2juxVyHUlIK3-5" edge="1">
          <mxGeometry width="160" relative="1" as="geometry">
            <mxPoint x="330" y="250" as="sourcePoint" />
            <mxPoint x="490" y="250" as="targetPoint" />
          </mxGeometry>
        </mxCell>
        <mxCell id="yOSEV3PB2juxVyHUlIK3-25" value="" style="endArrow=open;endFill=1;endSize=12;html=1;rounded=0;exitX=0.55;exitY=-0.018;exitDx=0;exitDy=0;exitPerimeter=0;entryX=0.432;entryY=1.029;entryDx=0;entryDy=0;entryPerimeter=0;" parent="1" source="yOSEV3PB2juxVyHUlIK3-7" target="yOSEV3PB2juxVyHUlIK3-4" edge="1">
          <mxGeometry width="160" relative="1" as="geometry">
            <mxPoint x="330" y="250" as="sourcePoint" />
            <mxPoint x="110" y="170" as="targetPoint" />
          </mxGeometry>
        </mxCell>
        <mxCell id="yOSEV3PB2juxVyHUlIK3-27" value="" style="endArrow=open;endFill=1;endSize=12;html=1;rounded=0;entryX=0.5;entryY=1;entryDx=0;entryDy=0;exitX=0.5;exitY=0;exitDx=0;exitDy=0;" parent="1" source="yOSEV3PB2juxVyHUlIK3-15" target="yOSEV3PB2juxVyHUlIK3-6" edge="1">
          <mxGeometry width="160" relative="1" as="geometry">
            <mxPoint x="330" y="220" as="sourcePoint" />
            <mxPoint x="490" y="220" as="targetPoint" />
          </mxGeometry>
        </mxCell>
      </root>
    </mxGraphModel>
  </diagram>
</mxfile>
